<svg id="visual" viewBox="0 0 900 450" width="900" height="450" xmlns="http://www.w3.org/2000/svg" xmlns:xlink="http://www.w3.org/1999/xlink" version="1.1"><g stroke-width="1" stroke-linejoin="bevel"><path d="M442 143L475 103L371 80Z" fill="#6bd0ff" stroke="#c1bdbd"></path><path d="M371 80L354 171L442 143Z" fill="#59bae8" stroke="#c1bdbd"></path><path d="M475 103L479 0L371 80Z" fill="#00537c" stroke="#c1bdbd"></path><path d="M475 103L527 41L479 0Z" fill="#006791" stroke="#c1bdbd"></path><path d="M653 163L527 41L475 103Z" fill="#002f53" stroke="#c1bdbd"></path><path d="M314 0L300 96L371 80Z" fill="#358fbc" stroke="#c1bdbd"></path><path d="M371 80L300 96L354 171Z" fill="#6bd0ff" stroke="#c1bdbd"></path><path d="M527 41L527 0L479 0Z" fill="#000000" stroke="#c1bdbd"></path><path d="M479 0L314 0L371 80Z" fill="#358fbc" stroke="#c1bdbd"></path><path d="M445 309L539 221L442 143Z" fill="#6bd0ff" stroke="#c1bdbd"></path><path d="M442 143L539 221L475 103Z" fill="#001e40" stroke="#c1bdbd"></path><path d="M527 41L644 53L527 0Z" fill="#47a4d2" stroke="#c1bdbd"></path><path d="M314 0L255 0L300 96Z" fill="#6bd0ff" stroke="#c1bdbd"></path><path d="M212 83L242 198L300 96Z" fill="#207ba6" stroke="#c1bdbd"></path><path d="M300 96L242 198L354 171Z" fill="#207ba6" stroke="#c1bdbd"></path><path d="M354 171L445 309L442 143Z" fill="#358fbc" stroke="#c1bdbd"></path><path d="M255 0L212 83L300 96Z" fill="#000000" stroke="#c1bdbd"></path><path d="M325 288L445 309L354 171Z" fill="#002f53" stroke="#c1bdbd"></path><path d="M242 198L325 288L354 171Z" fill="#002f53" stroke="#c1bdbd"></path><path d="M445 309L550 277L539 221Z" fill="#004067" stroke="#c1bdbd"></path><path d="M653 163L644 53L527 41Z" fill="#47a4d2" stroke="#c1bdbd"></path><path d="M653 163L475 103L539 221Z" fill="#6bd0ff" stroke="#c1bdbd"></path><path d="M630 291L653 163L539 221Z" fill="#6bd0ff" stroke="#c1bdbd"></path><path d="M212 83L181 154L242 198Z" fill="#00537c" stroke="#c1bdbd"></path><path d="M242 198L255 318L325 288Z" fill="#004067" stroke="#c1bdbd"></path><path d="M676 0L655 0L644 53Z" fill="#358fbc" stroke="#c1bdbd"></path><path d="M644 53L655 0L527 0Z" fill="#001e40" stroke="#c1bdbd"></path><path d="M255 0L186 0L212 83Z" fill="#002f53" stroke="#c1bdbd"></path><path d="M212 83L80 132L181 154Z" fill="#000000" stroke="#c1bdbd"></path><path d="M325 288L404 362L445 309Z" fill="#004067" stroke="#c1bdbd"></path><path d="M445 309L559 378L550 277Z" fill="#000000" stroke="#c1bdbd"></path><path d="M368 391L404 362L325 288Z" fill="#6bd0ff" stroke="#c1bdbd"></path><path d="M696 84L676 0L644 53Z" fill="#002f53" stroke="#c1bdbd"></path><path d="M653 163L696 84L644 53Z" fill="#59bae8" stroke="#c1bdbd"></path><path d="M214 289L255 318L242 198Z" fill="#207ba6" stroke="#c1bdbd"></path><path d="M105 248L214 289L242 198Z" fill="#000000" stroke="#c1bdbd"></path><path d="M550 277L630 291L539 221Z" fill="#001e40" stroke="#c1bdbd"></path><path d="M653 163L705 229L696 84Z" fill="#000000" stroke="#c1bdbd"></path><path d="M559 378L630 291L550 277Z" fill="#207ba6" stroke="#c1bdbd"></path><path d="M251 369L368 391L325 288Z" fill="#002f53" stroke="#c1bdbd"></path><path d="M450 450L559 378L445 309Z" fill="#006791" stroke="#c1bdbd"></path><path d="M630 291L705 229L653 163Z" fill="#47a4d2" stroke="#c1bdbd"></path><path d="M450 450L445 309L404 362Z" fill="#00537c" stroke="#c1bdbd"></path><path d="M630 291L702 298L705 229Z" fill="#002f53" stroke="#c1bdbd"></path><path d="M255 318L251 369L325 288Z" fill="#47a4d2" stroke="#c1bdbd"></path><path d="M201 354L251 369L255 318Z" fill="#001e40" stroke="#c1bdbd"></path><path d="M105 248L201 354L214 289Z" fill="#207ba6" stroke="#c1bdbd"></path><path d="M214 289L201 354L255 318Z" fill="#004067" stroke="#c1bdbd"></path><path d="M186 0L80 132L212 83Z" fill="#47a4d2" stroke="#c1bdbd"></path><path d="M181 154L105 248L242 198Z" fill="#006791" stroke="#c1bdbd"></path><path d="M559 378L658 347L630 291Z" fill="#000000" stroke="#c1bdbd"></path><path d="M671 342L702 298L630 291Z" fill="#004067" stroke="#c1bdbd"></path><path d="M658 347L671 342L630 291Z" fill="#001e40" stroke="#c1bdbd"></path><path d="M80 132L105 248L181 154Z" fill="#001e40" stroke="#c1bdbd"></path><path d="M368 391L450 450L404 362Z" fill="#004067" stroke="#c1bdbd"></path><path d="M559 378L588 450L658 347Z" fill="#006791" stroke="#c1bdbd"></path><path d="M658 347L672 450L671 342Z" fill="#47a4d2" stroke="#c1bdbd"></path><path d="M376 450L450 450L368 391Z" fill="#59bae8" stroke="#c1bdbd"></path><path d="M376 450L368 391L250 450Z" fill="#358fbc" stroke="#c1bdbd"></path><path d="M250 450L368 391L251 369Z" fill="#006791" stroke="#c1bdbd"></path><path d="M0 111L65 140L80 132Z" fill="#59bae8" stroke="#c1bdbd"></path><path d="M80 132L65 140L105 248Z" fill="#001e40" stroke="#c1bdbd"></path><path d="M186 0L71 0L80 132Z" fill="#358fbc" stroke="#c1bdbd"></path><path d="M827 92L778 0L696 84Z" fill="#002f53" stroke="#c1bdbd"></path><path d="M696 84L778 0L676 0Z" fill="#358fbc" stroke="#c1bdbd"></path><path d="M815 133L696 84L705 229Z" fill="#47a4d2" stroke="#c1bdbd"></path><path d="M855 333L771 259L702 298Z" fill="#00537c" stroke="#c1bdbd"></path><path d="M702 298L771 259L705 229Z" fill="#00537c" stroke="#c1bdbd"></path><path d="M450 450L588 450L559 378Z" fill="#00537c" stroke="#c1bdbd"></path><path d="M671 342L732 450L702 298Z" fill="#001e40" stroke="#c1bdbd"></path><path d="M771 259L815 133L705 229Z" fill="#001e40" stroke="#c1bdbd"></path><path d="M151 450L250 450L201 354Z" fill="#358fbc" stroke="#c1bdbd"></path><path d="M201 354L250 450L251 369Z" fill="#000000" stroke="#c1bdbd"></path><path d="M815 133L827 92L696 84Z" fill="#6bd0ff" stroke="#c1bdbd"></path><path d="M65 140L0 228L105 248Z" fill="#002f53" stroke="#c1bdbd"></path><path d="M105 248L100 390L201 354Z" fill="#6bd0ff" stroke="#c1bdbd"></path><path d="M71 0L0 111L80 132Z" fill="#358fbc" stroke="#c1bdbd"></path><path d="M71 0L0 0L0 111Z" fill="#004067" stroke="#c1bdbd"></path><path d="M588 450L672 450L658 347Z" fill="#207ba6" stroke="#c1bdbd"></path><path d="M0 360L100 390L105 248Z" fill="#002f53" stroke="#c1bdbd"></path><path d="M0 111L0 228L65 140Z" fill="#00537c" stroke="#c1bdbd"></path><path d="M0 228L0 234L105 248Z" fill="#001e40" stroke="#c1bdbd"></path><path d="M100 390L151 450L201 354Z" fill="#207ba6" stroke="#c1bdbd"></path><path d="M0 450L132 450L100 390Z" fill="#004067" stroke="#c1bdbd"></path><path d="M100 390L132 450L151 450Z" fill="#358fbc" stroke="#c1bdbd"></path><path d="M672 450L732 450L671 342Z" fill="#001e40" stroke="#c1bdbd"></path><path d="M900 179L900 131L815 133Z" fill="#358fbc" stroke="#c1bdbd"></path><path d="M815 133L900 131L827 92Z" fill="#000000" stroke="#c1bdbd"></path><path d="M900 179L815 133L771 259Z" fill="#6bd0ff" stroke="#c1bdbd"></path><path d="M827 92L900 0L778 0Z" fill="#59bae8" stroke="#c1bdbd"></path><path d="M900 303L900 179L771 259Z" fill="#59bae8" stroke="#c1bdbd"></path><path d="M900 131L900 0L827 92Z" fill="#002f53" stroke="#c1bdbd"></path><path d="M732 450L855 333L702 298Z" fill="#006791" stroke="#c1bdbd"></path><path d="M0 234L0 360L105 248Z" fill="#004067" stroke="#c1bdbd"></path><path d="M900 357L900 303L855 333Z" fill="#47a4d2" stroke="#c1bdbd"></path><path d="M855 333L900 303L771 259Z" fill="#001e40" stroke="#c1bdbd"></path><path d="M732 450L804 450L855 333Z" fill="#001e40" stroke="#c1bdbd"></path><path d="M804 450L900 357L855 333Z" fill="#006791" stroke="#c1bdbd"></path><path d="M0 360L0 450L100 390Z" fill="#001e40" stroke="#c1bdbd"></path><path d="M804 450L900 450L900 357Z" fill="#47a4d2" stroke="#c1bdbd"></path></g></svg>