<svg id="visual" viewBox="0 0 900 450" width="900" height="450" xmlns="http://www.w3.org/2000/svg" xmlns:xlink="http://www.w3.org/1999/xlink" version="1.1"><rect x="0" y="0" width="900" height="450" fill="#8eccff"></rect><path d="M0 220L82 251L164 290L245 260L327 215L409 268L491 289L573 251L655 217L736 262L818 285L900 294L900 451L818 451L736 451L655 451L573 451L491 451L409 451L327 451L245 451L164 451L82 451L0 451Z" fill="#070b10"></path><path d="M0 272L82 264L164 285L245 290L327 278L409 305L491 278L573 295L655 244L736 296L818 300L900 302L900 451L818 451L736 451L655 451L573 451L491 451L409 451L327 451L245 451L164 451L82 451L0 451Z" fill="#4d5655"></path><path d="M0 341L82 274L164 294L245 317L327 295L409 323L491 328L573 292L655 316L736 285L818 326L900 338L900 451L818 451L736 451L655 451L573 451L491 451L409 451L327 451L245 451L164 451L82 451L0 451Z" fill="#a8a89e"></path><path d="M0 366L82 330L164 338L245 326L327 367L409 374L491 346L573 350L655 326L736 375L818 380L900 375L900 451L818 451L736 451L655 451L573 451L491 451L409 451L327 451L245 451L164 451L82 451L0 451Z" fill="#a8a89e"></path><path d="M0 389L82 398L164 407L245 360L327 407L409 372L491 363L573 347L655 348L736 373L818 355L900 402L900 451L818 451L736 451L655 451L573 451L491 451L409 451L327 451L245 451L164 451L82 451L0 451Z" fill="#4d5655"></path><path d="M0 412L82 433L164 436L245 432L327 419L409 419L491 427L573 436L655 431L736 408L818 384L900 408L900 451L818 451L736 451L655 451L573 451L491 451L409 451L327 451L245 451L164 451L82 451L0 451Z" fill="#070b10"></path></svg>