<svg id="visual" viewBox="0 0 900 450" width="900" height="450" xmlns="http://www.w3.org/2000/svg" xmlns:xlink="http://www.w3.org/1999/xlink" version="1.1"><path d="M0 42L225 37L450 37L675 42L900 37L900 0L675 0L450 0L225 0L0 0Z" fill="#e7fdff"></path><path d="M0 73L225 73L450 73L675 73L900 73L900 35L675 40L450 35L225 35L0 40Z" fill="#c4dce0"></path><path d="M0 123L225 123L450 127L675 123L900 127L900 71L675 71L450 71L225 71L0 71Z" fill="#a2bdc2"></path><path d="M0 186L225 190L450 195L675 195L900 199L900 125L675 121L450 125L225 121L0 121Z" fill="#95b0b6"></path><path d="M0 294L225 298L450 307L675 289L900 303L900 197L675 193L450 193L225 188L0 184Z" fill="#a2bdc2"></path><path d="M0 339L225 339L450 348L675 334L900 348L900 301L675 287L450 305L225 296L0 292Z" fill="#c4dce0"></path><path d="M0 451L225 451L450 451L675 451L900 451L900 346L675 332L450 346L225 337L0 337Z" fill="#e7fdff"></path></svg>