<svg id="visual" viewBox="0 0 900 450" width="900" height="450" xmlns="http://www.w3.org/2000/svg" xmlns:xlink="http://www.w3.org/1999/xlink" version="1.1"><path d="M0 114L225 114L450 114L675 109L900 91L900 0L675 0L450 0L225 0L0 0Z" fill="#95b0b6"></path><path d="M0 154L225 150L450 150L675 150L900 132L900 89L675 107L450 112L225 112L0 112Z" fill="#b6d0d4"></path><path d="M0 195L225 190L450 190L675 190L900 172L900 130L675 148L450 148L225 148L0 152Z" fill="#d9f0f3"></path><path d="M0 231L225 222L450 226L675 226L900 208L900 170L675 188L450 188L225 188L0 193Z" fill="#e7fdff"></path><path d="M0 298L225 294L450 294L675 285L900 280L900 206L675 224L450 224L225 220L0 229Z" fill="#d9f0f3"></path><path d="M0 402L225 397L450 402L675 397L900 397L900 278L675 283L450 292L225 292L0 296Z" fill="#b6d0d4"></path><path d="M0 451L225 451L450 451L675 451L900 451L900 395L675 395L450 400L225 395L0 400Z" fill="#95b0b6"></path></svg>