<svg id="visual" viewBox="0 0 900 450" width="900" height="450" xmlns="http://www.w3.org/2000/svg" xmlns:xlink="http://www.w3.org/1999/xlink" version="1.1"><path d="M0 64L225 73L450 60L675 64L900 64L900 0L675 0L450 0L225 0L0 0Z" fill="#95b0b6"></path><path d="M0 105L225 109L450 100L675 105L900 105L900 62L675 62L450 58L225 71L0 62Z" fill="#b6d0d4"></path><path d="M0 213L225 217L450 199L675 213L900 208L900 103L675 103L450 98L225 107L0 103Z" fill="#d9f0f3"></path><path d="M0 316L225 325L450 321L675 325L900 316L900 206L675 211L450 197L225 215L0 211Z" fill="#e7fdff"></path><path d="M0 361L225 366L450 366L675 370L900 361L900 314L675 323L450 319L225 323L0 314Z" fill="#d9f0f3"></path><path d="M0 397L225 397L450 397L675 406L900 397L900 359L675 368L450 364L225 364L0 359Z" fill="#b6d0d4"></path><path d="M0 451L225 451L450 451L675 451L900 451L900 395L675 404L450 395L225 395L0 395Z" fill="#95b0b6"></path></svg>